<svg width="457" height="462" viewBox="0 0 457 462" fill="none" xmlns="http://www.w3.org/2000/svg">
<path d="M202.834 216.626H204.745C203.477 215.074 201.808 213.611 199.94 212.629C199.941 212.625 199.942 212.621 199.944 212.617C200.178 212.705 200.411 212.797 200.639 212.901C202.484 213.734 204.175 214.903 205.81 216.129C206.178 216.404 206.734 215.855 206.428 215.439C204.928 213.408 202.664 211.457 200.181 210.411C200.174 210.278 200.162 210.143 200.15 210.006C200.182 210.022 200.218 210.033 200.251 210.047C202.096 210.88 203.785 212.051 205.421 213.275C205.789 213.55 206.345 213.001 206.039 212.586C204.043 209.882 200.694 207.327 197.276 206.854C194.392 205.725 191.306 205.14 188.177 205.147C188.178 205.135 188.18 205.124 188.181 205.111C176.514 203.574 159.355 202.784 145.276 201.575C145.388 205.104 144.814 208.701 143.964 212.272C142.636 212.113 141.291 212.043 139.939 212.104C139.941 212.092 139.942 212.08 139.942 212.067C133.266 211.473 124.82 211.194 116.176 210.951C116.072 210.948 115.969 210.945 115.866 210.942C109.435 210.762 102.906 210.598 96.9265 210.338C97.406 216.821 95.6046 223.634 93.9396 230.07C101.767 229.385 109.547 228.158 117.214 226.431C123.338 225.052 129.386 223.335 135.332 221.323C136.617 220.888 137.902 220.453 139.178 219.989C139.551 220.454 139.945 220.854 140.358 221.202C142.2 222.753 144.418 223.211 146.853 223.211C147.871 223.211 148.926 223.134 150.007 223.024C151.886 223.779 153.622 224.876 155.308 226.032C155.687 226.292 156.219 225.719 155.897 225.317C154.669 223.792 152.98 222.335 151.109 221.318C151.166 221.217 151.219 221.117 151.27 221.017C151.374 221.054 151.479 221.088 151.581 221.13C153.46 221.885 155.196 222.983 156.882 224.138C157.261 224.398 157.794 223.825 157.471 223.423C156.096 221.716 154.147 220.097 152.005 219.083C152.006 219.079 152.007 219.075 152.008 219.07C152.247 219.148 152.483 219.232 152.716 219.324C154.594 220.079 156.331 221.177 158.016 222.332C158.397 222.592 158.929 222.019 158.606 221.618C157.022 219.651 154.677 217.797 152.153 216.857C152.146 216.78 152.133 216.7 152.125 216.624H152.499C154.263 217.372 155.909 218.404 157.508 219.499C157.888 219.757 158.42 219.186 158.097 218.783C157.489 218.028 156.76 217.298 155.962 216.622H173.824C178.287 215.575 182.713 214.376 187.083 212.992C189.673 216.514 193.514 216.729 197.774 216.477C197.871 216.522 197.963 216.577 198.06 216.623H201.365C200.621 215.953 199.81 215.337 198.948 214.821C199.008 214.722 199.064 214.625 199.121 214.527C199.224 214.569 199.326 214.608 199.426 214.654C200.622 215.196 201.744 215.882 202.834 216.626ZM81.4515 435.4L78.2294 437.836C77.1194 438.676 75.7975 439.166 74.4489 439.243L68.7071 439.56L68.5561 432.823H81.8356L81.4515 435.4ZM113.255 437.836C112.262 438.676 111.01 439.166 109.671 439.243L103.974 439.56L102.885 432.823H116.163L116.141 435.401L113.255 437.836ZM102.356 159.982L100.21 159.801C96.0896 155.395 91.5011 151.493 86.13 148.95L86.1822 148.336L87.2133 136.093L87.3155 134.877C87.0435 133.736 86.8837 132.55 86.8837 131.326C85.696 130.71 84.878 129.47 84.878 128.046V125.469C84.878 123.437 86.5407 121.775 88.5719 121.775C90.6031 121.775 92.2658 123.438 92.2658 125.469V126.93H94.3237L96.7201 114.796L99.7436 113.241L100.763 107.428H117.03V116.014V135.585C117.03 141.662 112.104 146.588 106.027 146.588H103.483L102.93 153.152L102.356 159.982Z" fill="url(#paint0_linear_3331_12907)"/>
<path d="M0 457.505C0 459.471 1.5928 461.062 3.5563 461.062H453.444C455.408 461.062 457 459.469 457 457.505C457 455.542 455.406 453.949 453.444 453.949H430.367H424.468H420.976H418.805H415.609H414.626H411.476H404.647H401.599H396.132H392.985H388.705H385.384H380.059H376.784H368.372H336.924V454.031H239.056H222.737H146.855V453.949H145.179C145.07 453.997 144.953 454.031 144.82 454.031H107.512H101.236H63.9278C63.7668 454.031 63.6192 453.998 63.4793 453.949H3.5596C1.59277 453.949 0 455.542 0 457.505ZM230.708 177H242.24V197.224H230.708V177ZM252.387 177H263.919V197.224H252.387V177ZM274.064 177H285.597V197.224H274.064V177ZM295.742 177H307.273V197.224H295.743L295.742 177ZM317.421 177H328.951V197.224H317.42L317.421 177ZM230.708 216.46V215.184H242.24V235.408H239.056V216.461H230.708V216.46ZM252.387 215.185H263.919V235.409H252.387V215.185ZM274.064 215.185H285.597V235.409H274.064V215.185ZM295.742 215.185H307.273V235.409H295.743L295.742 215.185ZM317.421 215.185H328.951V235.409H317.42L317.421 215.185ZM242.24 253.369V273.594H239.056V253.369H242.24ZM252.387 253.369H263.919V273.594H252.387V253.369ZM274.064 253.369H285.597V273.594H274.064V253.369ZM295.742 253.369H307.273V273.594H295.743L295.742 253.369ZM317.421 253.369H328.951V273.594H317.42L317.421 253.369ZM242.24 291.555V311.779H239.056V291.555H242.24ZM252.387 291.555H263.919V311.779H252.387V291.555ZM274.064 291.555H285.597V311.779H274.064V291.555ZM307.273 311.778H295.743V291.554H307.273V311.778ZM317.421 291.555H328.951V311.779H317.42L317.421 291.555ZM242.24 329.74V349.964H239.056V329.74H242.24ZM252.387 329.74H263.919V349.964H252.387V329.74ZM285.595 349.964H274.063V329.74H285.595V349.964ZM295.742 329.74H307.273V349.964H295.743L295.742 329.74ZM317.421 329.74H328.951V349.964H317.42L317.421 329.74ZM239.056 367.923H242.24V388.148H239.056V367.923ZM252.387 367.923H263.919V388.148H252.387V367.923ZM285.595 388.148H274.063V367.923H285.595V388.148ZM295.742 388.148V367.923H307.273V388.148H295.742ZM317.421 367.923H328.951V388.148H317.42L317.421 367.923ZM242.24 406.109V426.333H239.056V406.109H242.24ZM252.387 406.109H263.919V426.333H252.387V406.109ZM274.064 406.109H285.597V426.333H274.064V406.109ZM307.273 406.109V426.333H295.743V406.109H307.273ZM328.95 426.332H317.419V406.108H328.95V426.332ZM162.602 246.667H153.29V230.337H162.602V246.667ZM170.795 230.337H180.105V246.667H170.795V230.337ZM188.299 230.337H197.611V246.667H188.299V230.337ZM205.804 230.337H215.115V246.667H205.804V230.337ZM232.618 230.337V246.667H223.307V230.337H232.618ZM153.291 261.17H162.603V277.501H153.291V261.17ZM170.795 261.17H180.105V277.501H170.795V261.17ZM188.299 261.17H197.611V277.501H188.299V261.17ZM205.804 261.17H215.115V277.501H205.804V261.17ZM223.308 277.501V261.17H232.62V277.501H223.308ZM162.602 308.334H153.29V292.002H162.602V308.334ZM180.105 308.334H170.795V292.002H180.105V308.334ZM188.299 292.003H197.611V308.334H188.299V292.003ZM205.804 292.003H215.115V308.334H205.804V292.003ZM223.308 292.003H232.62V308.334H223.308V292.003ZM153.291 322.835H162.603V339.166H153.291V322.835ZM180.105 339.166H170.795V322.835H180.105V339.166ZM188.299 322.835H197.611V339.166H188.299V322.835ZM205.804 322.835H215.115V339.166H205.804V322.835ZM223.308 339.166V322.835H232.62V339.166H223.308ZM162.602 353.669V370.001H153.29V353.669H162.602ZM170.795 370V353.669H180.105V370.001H170.795V370ZM188.299 353.669H197.611V370.001H188.299V353.669ZM205.804 353.669H215.115V370.001H205.804V353.669ZM223.308 370V353.669H232.62V370.001H223.308V370ZM153.291 384.501H162.603V400.832H153.291V384.501ZM170.795 384.501H180.105V400.832H170.795V384.501ZM188.299 384.501H197.611V400.832H188.299V384.501ZM205.804 384.501H215.115V400.832H205.804V384.501ZM223.308 400.832V384.501H232.62V400.832H223.308ZM162.602 431.666H153.29V415.335H162.602V431.666ZM170.795 415.335H180.105V431.666H170.795V415.335ZM197.611 431.666H188.299V415.335H197.611V431.666ZM215.115 431.666H205.804V415.335H215.115V431.666ZM223.308 431.666V415.335H232.62V431.666H223.308Z" fill="url(#paint1_linear_3331_12907)"/>
<path d="M78.6453 438.248L81.8675 435.812L82.7299 435.16L86.2163 440.535C88.0743 443.343 91.9914 444.428 95.3545 445.11L101.162 446.287C102.025 442.822 103.102 440.044 103.102 440.044L104.39 439.972L110.087 439.654C111.426 439.579 112.679 439.087 113.671 438.248L116.557 435.812L117.327 435.16L121.563 440.535C123.812 443.343 127.881 444.428 131.339 445.11L138.011 446.425C140.894 446.993 143.444 448.843 144.924 451.434L145.971 453.267C146.255 453.764 146.046 454.325 145.595 454.526C145.487 454.573 145.37 454.608 145.237 454.608H107.929H101.652H64.3446C64.1837 454.608 64.0361 454.574 63.8962 454.526C63.2846 454.317 62.9017 453.695 63.0227 452.997C64.0039 447.301 67.8277 440.043 67.8277 440.043L69.1252 439.971L74.867 439.653C76.2134 439.578 77.5353 439.087 78.6453 438.248ZM101.181 107.837L100.162 113.65L97.1382 115.205L94.7418 127.339H92.684V125.878C92.684 123.846 91.0213 122.184 88.9901 122.184C86.9588 122.184 85.2972 123.847 85.2972 125.878V128.456C85.2972 129.88 86.1142 131.118 87.3018 131.735C87.3018 132.96 87.4616 134.145 87.7336 135.286L87.6315 136.503C84.7356 130.579 82.7221 124.223 81.7087 117.707C81.3547 115.432 81.1238 113.086 81.6588 110.848C82.1927 108.61 83.6201 106.473 85.7567 105.622C85.4904 99.9609 88.6781 95.1392 94.0159 93.239C99.3559 91.3387 105.242 91.9315 110.812 92.9781C112.171 93.2334 113.553 93.5154 114.925 93.36C115.097 93.34 115.27 93.3133 115.44 93.2778C118.266 92.6884 121.229 93.7118 122.676 96.2081C124.454 99.2749 125.228 102.886 124.53 106.371C123.7 110.509 121.02 114.192 117.45 116.424V107.837H101.182H101.181Z" fill="url(#paint2_linear_3331_12907)"/>
<path d="M363.334 144.298C363.735 145.323 364.125 146.354 364.501 147.391C364.563 147.559 364.72 147.663 364.89 147.663C364.936 147.663 364.984 147.655 365.031 147.639C365.244 147.561 365.355 147.324 365.278 147.11C364.9 146.066 364.507 145.028 364.103 143.997C364.02 143.785 363.78 143.682 363.569 143.764C363.354 143.847 363.25 144.087 363.334 144.298ZM362.864 241.381C363.073 241.468 363.174 241.71 363.086 241.92C362.662 242.939 362.226 243.951 361.775 244.957C361.706 245.11 361.558 245.201 361.398 245.201C361.342 245.201 361.285 245.19 361.231 245.166C361.023 245.072 360.931 244.828 361.023 244.621C361.469 243.623 361.903 242.616 362.325 241.604C362.411 241.393 362.653 241.296 362.864 241.381ZM359.112 249.638C359.316 249.74 359.399 249.988 359.296 250.19C358.802 251.177 358.294 252.156 357.776 253.13C357.702 253.268 357.56 253.348 357.412 253.348C357.346 253.348 357.28 253.333 357.219 253.299C357.017 253.193 356.941 252.943 357.049 252.741C357.564 251.774 358.068 250.801 358.56 249.821C358.661 249.618 358.907 249.537 359.112 249.638ZM359.916 135.414C360.124 135.317 360.368 135.404 360.465 135.609C360.941 136.609 361.404 137.617 361.856 138.63C361.948 138.838 361.855 139.082 361.648 139.174C361.592 139.198 361.535 139.21 361.48 139.21C361.32 139.21 361.171 139.119 361.103 138.964C360.654 137.956 360.194 136.956 359.721 135.962C359.623 135.758 359.711 135.511 359.916 135.414ZM355.69 127.344C355.888 127.233 356.14 127.302 356.252 127.501C356.797 128.465 357.33 129.436 357.849 130.415C357.957 130.616 357.88 130.866 357.681 130.973C357.618 131.006 357.553 131.021 357.487 131.021C357.339 131.021 357.196 130.943 357.123 130.803C356.606 129.829 356.077 128.865 355.534 127.907C355.422 127.707 355.492 127.455 355.69 127.344ZM369.821 219.33C369.795 219.33 369.764 219.327 369.735 219.322C369.513 219.274 369.371 219.055 369.418 218.834C369.647 217.76 369.86 216.683 370.062 215.6C370.102 215.376 370.317 215.229 370.543 215.27C370.767 215.31 370.915 215.526 370.872 215.751C370.669 216.839 370.453 217.924 370.224 219.004C370.183 219.198 370.011 219.33 369.821 219.33ZM366.622 152.356C366.841 152.287 367.071 152.408 367.138 152.626C367.468 153.68 367.786 154.74 368.089 155.804C368.151 156.023 368.023 156.252 367.806 156.314C367.768 156.324 367.729 156.329 367.691 156.329C367.513 156.329 367.347 156.212 367.296 156.031C366.994 154.972 366.679 153.92 366.35 152.872C366.284 152.653 366.404 152.422 366.622 152.356ZM369.059 161.114C369.28 161.06 369.502 161.199 369.555 161.421C369.809 162.495 370.05 163.574 370.279 164.659C370.325 164.882 370.183 165.1 369.96 165.147C369.932 165.152 369.902 165.156 369.876 165.156C369.684 165.156 369.514 165.023 369.473 164.828C369.246 163.751 369.007 162.678 368.752 161.611C368.699 161.39 368.837 161.168 369.059 161.114ZM368.016 227.854C367.964 228.035 367.801 228.152 367.621 228.152C367.584 228.152 367.545 228.148 367.506 228.137C367.288 228.072 367.161 227.845 367.224 227.627C367.527 226.573 367.817 225.512 368.094 224.446C368.152 224.225 368.376 224.095 368.597 224.151C368.817 224.209 368.948 224.434 368.892 224.654C368.614 225.725 368.322 226.793 368.016 227.854ZM354.79 257.619C354.986 257.735 355.051 257.989 354.935 258.184C354.372 259.134 353.798 260.078 353.212 261.012C353.133 261.137 353 261.206 352.863 261.206C352.789 261.206 352.711 261.186 352.645 261.142C352.452 261.021 352.393 260.767 352.514 260.573C353.096 259.645 353.667 258.707 354.226 257.764C354.341 257.568 354.594 257.503 354.79 257.619ZM370.873 170.025C371.101 169.983 371.312 170.141 371.347 170.365C371.526 171.455 371.693 172.547 371.844 173.646C371.875 173.871 371.717 174.08 371.492 174.111C371.473 174.114 371.455 174.115 371.435 174.115C371.232 174.115 371.056 173.966 371.028 173.759C370.877 172.668 370.714 171.581 370.536 170.499C370.496 170.274 370.649 170.062 370.873 170.025ZM373.042 188.517C373.068 189.576 373.08 190.638 373.08 191.704V191.834C373.08 192.061 372.896 192.245 372.668 192.245C372.441 192.245 372.256 192.061 372.256 191.834V191.704C372.256 190.645 372.243 189.589 372.219 188.537C372.213 188.309 372.393 188.121 372.621 188.114C372.851 188.102 373.037 188.288 373.042 188.517ZM366.03 232.874C366.245 232.946 366.363 233.18 366.289 233.397C365.936 234.446 365.57 235.491 365.192 236.527C365.131 236.693 364.974 236.798 364.804 236.798C364.758 236.798 364.71 236.79 364.663 236.773C364.449 236.696 364.339 236.458 364.416 236.243C364.793 235.212 365.157 234.177 365.507 233.132C365.58 232.917 365.813 232.802 366.03 232.874ZM372.364 183.159C372.15 183.159 371.969 182.993 371.953 182.775C371.88 181.676 371.791 180.58 371.689 179.489C371.667 179.262 371.835 179.061 372.062 179.04C372.286 179.019 372.49 179.186 372.511 179.413C372.613 180.512 372.702 181.614 372.776 182.721C372.793 182.948 372.619 183.145 372.392 183.16C372.383 183.158 372.374 183.159 372.364 183.159ZM371.397 210.376C371.379 210.376 371.361 210.375 371.34 210.372C371.114 210.341 370.957 210.131 370.99 209.907C371.142 208.82 371.281 207.73 371.406 206.636C371.431 206.411 371.637 206.244 371.861 206.274C372.088 206.3 372.251 206.504 372.223 206.73C372.098 207.831 371.958 208.927 371.804 210.021C371.777 210.228 371.6 210.376 371.397 210.376ZM372.348 201.334C372.338 201.334 372.329 201.334 372.319 201.333C372.091 201.317 371.921 201.119 371.936 200.893C372.012 199.8 372.074 198.702 372.124 197.601C372.134 197.373 372.332 197.188 372.555 197.208C372.783 197.218 372.958 197.411 372.948 197.639C372.898 198.746 372.835 199.851 372.758 200.951C372.743 201.167 372.562 201.334 372.348 201.334ZM334.118 98.603C334.905 99.3789 335.684 100.165 336.453 100.961C336.611 101.125 336.606 101.386 336.442 101.543C336.363 101.621 336.258 101.659 336.155 101.659C336.048 101.659 335.941 101.617 335.859 101.532C335.095 100.742 334.323 99.9605 333.54 99.1891C333.378 99.0292 333.376 98.7684 333.536 98.6063C333.696 98.4454 333.958 98.4432 334.118 98.603ZM279.767 66.421C280.83 66.7374 281.884 67.067 282.935 67.41C283.152 67.4799 283.269 67.713 283.199 67.9295C283.143 68.1037 282.981 68.2136 282.806 68.2136C282.764 68.2136 282.721 68.2069 282.68 68.1925C281.637 67.8518 280.587 67.5254 279.533 67.2102C279.315 67.1458 279.189 66.9161 279.255 66.6974C279.319 66.4799 279.549 66.3544 279.767 66.421ZM288.413 69.3324C289.45 69.722 290.478 70.1249 291.502 70.5412C291.713 70.6266 291.815 70.8675 291.729 71.0784C291.664 71.2382 291.511 71.3359 291.348 71.3359C291.295 71.3359 291.243 71.3259 291.192 71.3059C290.175 70.893 289.152 70.4923 288.12 70.105C287.908 70.025 287.799 69.7875 287.879 69.5744C287.961 69.3602 288.197 69.2525 288.413 69.3324ZM270.94 64.1245C272.021 64.3654 273.097 64.6196 274.168 64.8882C274.389 64.9437 274.523 65.1668 274.468 65.3876C274.422 65.5752 274.254 65.6996 274.069 65.6996C274.037 65.6996 274.002 65.6951 273.969 65.6874C272.905 65.4221 271.836 65.169 270.76 64.9292C270.538 64.8793 270.398 64.6595 270.448 64.4375C270.496 64.2144 270.716 64.0746 270.94 64.1245ZM296.817 72.8377C297.821 73.2983 298.819 73.7711 299.807 74.2551C300.011 74.355 300.095 74.6025 299.995 74.8067C299.924 74.9521 299.777 75.0376 299.624 75.0376C299.563 75.0376 299.501 75.0243 299.444 74.9954C298.461 74.5137 297.472 74.0442 296.473 73.5869C296.266 73.4914 296.175 73.2472 296.27 73.0397C296.367 72.8332 296.611 72.7433 296.817 72.8377ZM265.248 62.9879C265.471 63.0279 265.622 63.241 265.582 63.4652C265.547 63.665 265.374 63.806 265.177 63.806C265.154 63.806 265.129 63.8037 265.105 63.7993C264.025 63.6084 262.942 63.4308 261.852 63.2676C261.626 63.2332 261.471 63.0235 261.505 62.7982C261.539 62.5728 261.745 62.423 261.975 62.4507C263.068 62.6172 264.16 62.7959 265.248 62.9879ZM237.998 61.0633C238.002 61.0633 238.008 61.0633 238.011 61.0633C238.233 61.0633 238.416 61.2398 238.423 61.4618C238.431 61.6893 238.252 61.8802 238.025 61.8869C236.924 61.9235 235.825 61.9735 234.731 62.0367C234.723 62.0367 234.714 62.0378 234.708 62.0378C234.49 62.0378 234.309 61.8691 234.296 61.6493C234.283 61.4218 234.456 61.2276 234.683 61.2142C235.784 61.1499 236.89 61.0999 237.998 61.0633ZM304.952 76.9201C305.921 77.4495 306.882 77.9912 307.838 78.5439C308.036 78.6582 308.101 78.9102 307.988 79.1078C307.911 79.2399 307.773 79.3131 307.631 79.3131C307.561 79.3131 307.49 79.2954 307.424 79.2576C306.476 78.7082 305.521 78.1699 304.558 77.6438C304.357 77.535 304.285 77.2842 304.394 77.0844C304.504 76.8846 304.752 76.8102 304.952 76.9201ZM247.116 61.0766C247.343 61.0844 247.522 61.2753 247.513 61.5028C247.506 61.7259 247.322 61.9002 247.101 61.9002C247.096 61.9002 247.091 61.9002 247.087 61.9002C245.993 61.8613 244.894 61.8358 243.794 61.8236C243.566 61.8214 243.383 61.6349 243.386 61.4074C243.389 61.1798 243.564 61.0333 243.803 61C244.912 61.0122 246.016 61.0377 247.116 61.0766ZM256.214 61.7171C256.441 61.7404 256.606 61.9435 256.582 62.1699C256.559 62.3819 256.381 62.5395 256.172 62.5395C256.158 62.5395 256.144 62.5384 256.129 62.5373C255.04 62.423 253.944 62.322 252.845 62.2343C252.619 62.2165 252.45 62.0167 252.467 61.7903C252.487 61.5628 252.679 61.3951 252.911 61.4118C254.016 61.4995 255.118 61.6016 256.214 61.7171ZM344.525 272.593C344.703 272.735 344.733 272.993 344.592 273.172C343.903 274.037 343.202 274.891 342.49 275.737C342.408 275.836 342.291 275.886 342.173 275.886C342.08 275.886 341.986 275.855 341.909 275.789C341.735 275.642 341.712 275.383 341.859 275.209C342.565 274.369 343.261 273.518 343.946 272.66C344.089 272.479 344.348 272.451 344.525 272.593ZM345.61 112.198C345.791 112.06 346.049 112.094 346.188 112.274C346.861 113.153 347.523 114.04 348.174 114.936C348.308 115.12 348.267 115.378 348.083 115.512C348.011 115.565 347.925 115.591 347.841 115.591C347.713 115.591 347.587 115.532 347.507 115.421C346.86 114.531 346.2 113.65 345.533 112.777C345.394 112.595 345.429 112.335 345.61 112.198ZM312.787 81.5619C313.718 82.1568 314.64 82.7651 315.553 83.3833C315.742 83.511 315.791 83.7674 315.663 83.9561C315.583 84.0737 315.454 84.137 315.321 84.137C315.243 84.137 315.16 84.1137 315.091 84.0659C314.183 83.451 313.265 82.8472 312.341 82.2556C312.149 82.1324 312.094 81.8783 312.217 81.6862C312.34 81.4953 312.596 81.4387 312.787 81.5619ZM349.92 265.281C350.107 265.411 350.154 265.669 350.025 265.856C349.398 266.765 348.759 267.668 348.108 268.559C348.027 268.671 347.901 268.729 347.773 268.729C347.69 268.729 347.606 268.703 347.531 268.65C347.347 268.516 347.307 268.258 347.44 268.074C348.086 267.186 348.721 266.291 349.345 265.386C349.475 265.199 349.733 265.153 349.92 265.281ZM339.807 105.192C339.977 105.042 340.239 105.057 340.389 105.228C341.12 106.057 341.842 106.895 342.553 107.743C342.7 107.918 342.675 108.177 342.501 108.324C342.424 108.388 342.331 108.421 342.238 108.421C342.12 108.421 342.004 108.371 341.921 108.273C341.214 107.43 340.497 106.597 339.77 105.773C339.621 105.602 339.636 105.342 339.807 105.192ZM350.912 119.593C351.103 119.467 351.358 119.519 351.485 119.71C352.095 120.633 352.695 121.566 353.282 122.505C353.402 122.698 353.344 122.952 353.151 123.073C353.082 123.115 353.008 123.136 352.932 123.136C352.795 123.136 352.66 123.067 352.583 122.943C352 122.01 351.404 121.084 350.798 120.166C350.671 119.974 350.722 119.719 350.912 119.593ZM320.284 86.7409C321.171 87.4003 322.05 88.0707 322.918 88.7522C323.098 88.8932 323.128 89.1518 322.988 89.3305C322.908 89.4348 322.786 89.4892 322.663 89.4892C322.574 89.4892 322.485 89.4603 322.408 89.4015C321.545 88.7244 320.673 88.0585 319.79 87.4036C319.607 87.2682 319.569 87.0095 319.705 86.8264C319.842 86.6433 320.101 86.6044 320.284 86.7409ZM327.405 92.4317C328.245 93.1509 329.074 93.8802 329.895 94.6216C330.063 94.7737 330.077 95.0345 329.924 95.2032C329.844 95.2931 329.731 95.3398 329.619 95.3398C329.52 95.3398 329.421 95.3042 329.342 95.2332C328.527 94.4973 327.701 93.7725 326.868 93.0577C326.696 92.9101 326.676 92.6492 326.824 92.4761C326.971 92.304 327.231 92.2841 327.405 92.4317ZM219.863 62.9225C220.082 62.8825 220.301 63.0345 220.339 63.2588C220.379 63.483 220.228 63.6961 220.003 63.7361C218.918 63.9236 217.838 64.1267 216.762 64.341C216.735 64.3465 216.708 64.3487 216.681 64.3487C216.489 64.3487 216.317 64.2133 216.278 64.0169C216.233 63.7938 216.378 63.5762 216.602 63.5318C217.683 63.3154 218.771 63.1123 219.863 62.9225ZM118.881 150.43C118.837 150.43 118.792 150.423 118.749 150.408C118.534 150.335 118.417 150.102 118.491 149.885C118.844 148.835 119.212 147.792 119.591 146.755C119.669 146.542 119.905 146.432 120.122 146.51C120.335 146.589 120.446 146.825 120.367 147.039C119.99 148.07 119.626 149.107 119.273 150.15C119.214 150.323 119.054 150.43 118.881 150.43ZM142.9 275.231C143.607 276.073 144.323 276.906 145.052 277.73C145.203 277.898 145.188 278.16 145.017 278.31C144.94 278.38 144.843 278.414 144.744 278.414C144.631 278.414 144.516 278.368 144.436 278.276C143.703 277.446 142.979 276.61 142.269 275.762C142.122 275.587 142.144 275.328 142.32 275.181C142.494 275.035 142.753 275.059 142.9 275.231ZM137.308 268.09C137.955 268.979 138.615 269.86 139.283 270.731C139.422 270.912 139.388 271.171 139.208 271.31C139.133 271.367 139.045 271.394 138.956 271.394C138.834 271.394 138.711 271.338 138.63 271.233C137.958 270.354 137.294 269.468 136.641 268.574C136.508 268.391 136.548 268.133 136.732 267.997C136.916 267.865 137.175 267.905 137.308 268.09ZM131.656 260.444C131.849 260.323 132.104 260.38 132.226 260.574C132.81 261.509 133.406 262.433 134.013 263.349C134.138 263.54 134.086 263.795 133.897 263.922C133.827 263.967 133.749 263.991 133.67 263.991C133.537 263.991 133.406 263.925 133.325 263.806C132.713 262.883 132.113 261.952 131.525 261.014C131.407 260.819 131.464 260.564 131.656 260.444ZM118.155 231.175C118.129 231.184 118.103 231.185 118.077 231.187C117.963 230.256 117.853 229.324 117.745 228.391C117.967 229.149 118.189 229.906 118.425 230.658C118.493 230.875 118.372 231.107 118.155 231.175ZM169.964 83.3567C170.092 83.5454 170.042 83.8018 169.851 83.9283C168.94 84.5432 168.034 85.1704 167.139 85.8075C167.067 85.8585 166.982 85.8841 166.901 85.8841C166.772 85.8841 166.645 85.8241 166.563 85.7109C166.431 85.5255 166.474 85.268 166.66 85.136C167.562 84.4944 168.472 83.8639 169.39 83.2446C169.58 83.1192 169.835 83.1669 169.964 83.3567ZM127.119 252.548C127.321 252.443 127.569 252.517 127.677 252.718C128.197 253.69 128.726 254.655 129.27 255.611C129.382 255.809 129.312 256.061 129.112 256.173C129.048 256.21 128.979 256.226 128.909 256.226C128.766 256.226 128.626 256.153 128.55 256.018C128.005 255.054 127.471 254.083 126.95 253.105C126.841 252.907 126.919 252.656 127.119 252.548ZM121.222 239.762C121.172 239.784 121.12 239.791 121.07 239.791C120.906 239.791 120.75 239.693 120.687 239.53C120.28 238.498 119.887 237.462 119.508 236.417C119.43 236.203 119.539 235.966 119.754 235.889C119.97 235.812 120.205 235.921 120.283 236.135C120.661 237.172 121.05 238.203 121.455 239.227C121.536 239.439 121.431 239.68 121.222 239.762ZM142.913 107.519C143.088 107.666 143.11 107.926 142.963 108.1C142.255 108.939 141.559 109.788 140.873 110.646C140.792 110.748 140.671 110.801 140.551 110.801C140.462 110.801 140.371 110.773 140.294 110.712C140.116 110.569 140.088 110.31 140.23 110.132C140.92 109.269 141.622 108.414 142.332 107.569C142.478 107.395 142.739 107.373 142.913 107.519ZM122.083 141.938C122.03 141.938 121.976 141.928 121.924 141.906C121.714 141.818 121.615 141.577 121.702 141.366C122.126 140.348 122.565 139.336 123.015 138.332C123.109 138.123 123.354 138.031 123.559 138.123C123.768 138.216 123.86 138.46 123.768 138.668C123.321 139.666 122.887 140.671 122.463 141.684C122.397 141.842 122.245 141.938 122.083 141.938ZM228.899 61.6771C229.121 61.6604 229.329 61.8181 229.351 62.0456C229.374 62.272 229.21 62.474 228.983 62.4973C227.887 62.6094 226.796 62.7349 225.707 62.8747C225.689 62.877 225.673 62.8781 225.654 62.8781C225.45 62.8781 225.272 62.726 225.245 62.5184C225.218 62.2931 225.376 62.0856 225.602 62.0567C226.697 61.9169 227.796 61.7903 228.899 61.6771ZM149.026 100.792C149.189 100.951 149.195 101.211 149.036 101.375C148.272 102.164 147.518 102.963 146.773 103.771C146.693 103.859 146.581 103.904 146.471 103.904C146.371 103.904 146.269 103.868 146.191 103.795C146.024 103.641 146.014 103.38 146.168 103.213C146.917 102.4 147.675 101.595 148.444 100.802C148.602 100.639 148.862 100.634 149.026 100.792ZM155.594 94.5017C155.746 94.6716 155.732 94.9313 155.562 95.0845C154.747 95.8192 153.938 96.5651 153.138 97.3199C153.058 97.3954 152.956 97.4331 152.855 97.4331C152.744 97.4331 152.637 97.3898 152.555 97.3044C152.398 97.139 152.406 96.8781 152.572 96.7216C153.376 95.9624 154.189 95.2121 155.011 94.4729C155.178 94.3186 155.442 94.3319 155.594 94.5017ZM193.563 70.4091C193.772 70.3247 194.015 70.4257 194.099 70.6377C194.184 70.8486 194.082 71.0895 193.87 71.175C192.847 71.5868 191.83 72.0119 190.82 72.4492C190.766 72.4725 190.71 72.4825 190.656 72.4825C190.496 72.4825 190.346 72.3892 190.277 72.2338C190.188 72.0252 190.283 71.7821 190.492 71.6911C191.509 71.2516 192.533 70.8242 193.563 70.4091ZM162.584 88.68C162.724 88.8599 162.693 89.1185 162.513 89.2583C161.646 89.9354 160.787 90.6225 159.939 91.3206C159.862 91.3839 159.77 91.415 159.677 91.415C159.559 91.415 159.441 91.3639 159.359 91.264C159.214 91.0875 159.241 90.8289 159.417 90.6835C160.272 89.9809 161.136 89.2894 162.008 88.6079C162.186 88.4691 162.444 88.4991 162.584 88.68ZM123.143 244.352C123.352 244.261 123.595 244.353 123.688 244.561C124.138 245.569 124.598 246.569 125.073 247.562C125.172 247.769 125.084 248.014 124.879 248.112C124.82 248.138 124.76 248.151 124.701 248.151C124.547 248.151 124.401 248.065 124.33 247.917C123.852 246.917 123.387 245.909 122.934 244.896C122.843 244.687 122.937 244.445 123.143 244.352ZM210.936 64.7961C211.162 64.7417 211.38 64.8771 211.435 65.098C211.49 65.3188 211.354 65.5431 211.135 65.5963C210.066 65.8605 209.002 66.1369 207.945 66.4277C207.908 66.4377 207.872 66.4421 207.835 66.4421C207.654 66.4421 207.487 66.3222 207.437 66.1391C207.377 65.9193 207.507 65.6929 207.726 65.6318C208.79 65.3399 209.861 65.0613 210.936 64.7961ZM177.138 78.4074C177.334 78.2942 177.587 78.3619 177.701 78.5584C177.816 78.7559 177.747 79.0079 177.55 79.1222C176.596 79.6728 175.649 80.2344 174.711 80.8094C174.644 80.8504 174.569 80.8693 174.496 80.8693C174.357 80.8693 174.222 80.7994 174.144 80.6717C174.027 80.4775 174.087 80.2244 174.281 80.1045C175.226 79.5273 176.179 78.9613 177.138 78.4074ZM132.162 122.154C132.357 122.275 132.414 122.529 132.293 122.722C131.712 123.65 131.139 124.587 130.579 125.532C130.502 125.661 130.364 125.734 130.224 125.734C130.153 125.734 130.08 125.715 130.016 125.676C129.82 125.559 129.755 125.306 129.872 125.111C130.435 124.161 131.009 123.218 131.596 122.285C131.717 122.091 131.97 122.034 132.162 122.154ZM137.283 114.652C137.466 114.786 137.507 115.044 137.373 115.228C136.725 116.114 136.089 117.008 135.465 117.912C135.385 118.027 135.256 118.089 135.125 118.089C135.045 118.089 134.963 118.066 134.891 118.016C134.703 117.887 134.657 117.63 134.786 117.442C135.415 116.533 136.055 115.632 136.706 114.741C136.842 114.557 137.101 114.518 137.283 114.652ZM185.207 74.1208C185.409 74.022 185.657 74.1063 185.758 74.3117C185.858 74.5159 185.772 74.7634 185.567 74.8633C184.576 75.3462 183.592 75.8412 182.615 76.3474C182.553 76.3784 182.49 76.394 182.424 76.394C182.276 76.394 182.133 76.3129 182.06 76.172C181.954 75.9699 182.034 75.7213 182.235 75.6159C183.219 75.1042 184.209 74.6069 185.207 74.1208ZM114.541 164.276C114.59 164.054 114.806 163.908 115.03 163.958C115.252 164.005 115.396 164.225 115.348 164.448C115.259 164.866 115.18 165.289 115.094 165.71C114.889 165.34 114.677 164.966 114.475 164.598C114.499 164.49 114.519 164.382 114.541 164.276ZM127.581 129.99C127.783 130.097 127.858 130.348 127.75 130.549C127.234 131.514 126.728 132.488 126.235 133.468C126.164 133.612 126.018 133.695 125.867 133.695C125.804 133.695 125.741 133.681 125.681 133.651C125.477 133.549 125.396 133.3 125.498 133.097C125.993 132.11 126.502 131.131 127.021 130.159C127.132 129.958 127.385 129.885 127.581 129.99ZM202.162 67.2923C202.377 67.2235 202.61 67.3412 202.681 67.5576C202.751 67.7741 202.631 68.0071 202.416 68.0771C201.366 68.4167 200.319 68.7697 199.281 69.1349C199.236 69.1515 199.189 69.1582 199.145 69.1582C198.975 69.1582 198.815 69.0527 198.756 68.8829C198.681 68.6687 198.792 68.4322 199.008 68.3579C200.053 67.9883 201.104 67.6342 202.162 67.2923ZM116.279 159.143C116.246 159.143 116.209 159.139 116.174 159.13C115.954 159.072 115.822 158.847 115.878 158.627C116.158 157.555 116.45 156.488 116.756 155.427C116.82 155.208 117.05 155.082 117.267 155.145C117.486 155.208 117.613 155.437 117.549 155.656C117.246 156.71 116.954 157.77 116.676 158.835C116.628 159.021 116.462 159.143 116.279 159.143ZM337.198 453.859V453.777V355.753V354.968V281.649C337.686 281.133 338.18 280.62 338.659 280.097C338.815 279.929 338.801 279.667 338.635 279.514C338.468 279.361 338.206 279.371 338.052 279.539C337.771 279.844 337.482 280.143 337.198 280.446V159.645H223.011V216.291H230.983V215.015H242.514V235.239H239.331V253.201H242.514V273.425H239.331V291.386H242.514V311.611H239.331V329.572H242.514V349.797H239.331V367.758H242.514V387.982H239.331V405.944H242.514V426.168H239.331V453.866L337.198 453.859ZM242.514 197.054H230.983V176.829H242.514V197.054ZM329.225 405.938V426.162H317.693V405.938H329.225ZM317.696 387.977V367.752H329.226V387.977H317.696ZM296.016 426.161V405.937H307.547V426.161H296.016ZM307.547 349.793H296.017V329.569H307.547V349.793ZM285.87 329.569V349.793H274.338V329.569H285.87ZM285.87 387.977H274.338V367.752H285.87V387.977ZM285.87 426.161H274.338V405.937H285.87V426.161ZM264.191 197.054H252.659V176.829H264.191V197.054ZM264.191 235.238H252.659V215.014H264.191V235.238ZM264.191 273.423H252.659V253.198H264.191V273.423ZM264.191 311.608H252.659V291.383H264.191V311.608ZM264.191 349.793H252.659V329.569H264.191V349.793ZM264.191 387.977H252.659V367.752H264.191V387.977ZM264.191 426.161H252.659V405.937H264.191V426.161ZM285.87 197.054H274.338V176.829H285.87V197.054ZM285.87 235.238H274.338V215.014H285.87V235.238ZM285.87 273.423H274.338V253.198H285.87V273.423ZM285.87 311.608H274.338V291.383H285.87V311.608ZM307.547 197.054H296.017V176.829H307.547V197.054ZM307.547 235.238H296.017V215.014H307.547V235.238ZM307.547 273.423H296.017V253.198H307.547V273.423ZM307.547 291.384V311.609H296.017V291.384H307.547ZM329.225 349.793H317.693V329.569H329.225V349.793ZM317.696 311.608V291.383H329.226V311.608H317.696ZM329.225 197.054H317.693V176.829H329.225V197.054ZM329.225 235.238H317.693V215.014H329.225V235.238ZM329.225 273.423H317.693V253.198H329.225V273.423ZM307.547 387.977H296.017V367.752H307.547V387.977ZM122.257 266.473C123.309 289.171 124.687 314.759 123.636 338.615C123.624 338.886 123.614 339.159 123.603 339.43C123.188 348.323 122.439 356.968 121.191 365.114C117.769 387.428 117.629 409.569 117.732 432.485H116.438H103.159H101.604C94.5328 412.249 92.8568 388.864 98.522 369.169C100.307 362.959 100.646 356.594 100.063 350.118C98.9205 355.252 97.6685 360.278 96.2533 365.114C89.7201 387.428 86.4957 409.569 83.4044 432.485H82.1102H68.8307H67.2768C63.0257 412.249 64.6096 388.864 73.0175 369.169C86.0073 338.742 65.1079 304.595 68.2114 271.954C68.3002 272.289 68.3768 272.613 68.4656 272.948C83.2624 279.797 112.093 275.841 122.257 266.473Z" fill="url(#paint3_linear_3331_12907)"/>
<path d="M444.569 422.149C439.044 431.92 433.855 441.874 428.643 451.819C428.259 452.551 427.873 453.282 427.486 454.012L427.296 454.372H433.194C434.846 450.579 436.535 446.803 438.309 443.066C440.375 438.713 443.01 434.578 445.162 430.246C445.231 427.542 445.047 424.831 444.569 422.149Z" fill="url(#paint4_linear_3331_12907)"/>
<path d="M431.481 398.3C430.078 396.945 428.595 395.674 427.04 394.497C424.952 414.644 421.965 434.677 417.454 454.372H418.436C423.732 436.994 429.052 419.624 435.446 402.624C434.948 402.009 434.423 401.415 433.895 400.825C433.024 403.459 432.143 406.09 431.197 408.699C430.524 410.552 427.541 409.753 428.219 407.88C429.369 404.706 430.428 401.505 431.481 398.3Z" fill="url(#paint5_linear_3331_12907)"/>
<path d="M440.864 411.035C439.915 409.128 438.833 407.288 437.622 405.531C431.654 421.59 426.621 437.973 421.633 454.37H423.804C424.204 453.623 424.608 452.876 425.002 452.124C431.05 440.598 437.041 429.042 443.527 417.757C443.21 416.693 442.849 415.644 442.448 414.609C440.656 418.022 438.887 421.448 437.232 424.933C436.382 426.725 433.718 425.16 434.568 423.375C436.549 419.203 438.702 415.116 440.864 411.035Z" fill="url(#paint6_linear_3331_12907)"/>
<path d="M399.685 385C399.476 385.001 399.265 385.013 399.054 385.017C403.523 408.08 408.309 431.196 407.474 454.371H414.304C418.998 434.019 422.04 413.305 424.149 392.475C420.876 390.351 417.351 388.624 413.674 387.365C414.517 399.225 414.948 411.093 413.838 422.992C413.655 424.953 410.567 424.971 410.751 422.992C411.891 410.774 411.406 398.591 410.516 386.413C406.989 385.487 403.353 384.992 399.685 385Z" fill="url(#paint7_linear_3331_12907)"/>
<path d="M365.392 410.45C369.558 418.98 372.949 427.895 376.354 436.749C378.603 442.598 380.77 448.476 382.882 454.373H388.207C385.726 448.724 383.042 443.229 380.722 438.017C376.591 428.73 372.461 419.45 367.911 410.357C366.587 407.712 365.221 405.092 363.829 402.486C363.325 403.087 362.837 403.697 362.363 404.322C363.372 406.373 364.397 408.412 365.392 410.45Z" fill="url(#paint8_linear_3331_12907)"/>
<path d="M377.758 390.944C380.272 396.812 382.648 402.743 384.875 408.732C390.345 423.447 395.768 438.757 398.96 454.373H404.426C405.322 431.275 400.522 408.183 396.032 385.177C393.46 385.407 390.924 385.883 388.441 386.561C391.565 395.813 394.315 405.177 395.983 414.843C396.317 416.786 393.344 417.62 393.006 415.664C391.343 406.03 388.606 396.699 385.494 387.475C382.823 388.402 380.231 389.558 377.758 390.944Z" fill="url(#paint9_linear_3331_12907)"/>
<path d="M369.656 406.964C374.762 417.044 379.319 427.366 383.935 437.675C386.321 443.003 389.043 448.609 391.531 454.371H395.811C392.622 439.036 387.264 423.993 381.898 409.552C379.77 403.827 377.501 398.162 375.105 392.552C373.507 393.583 371.965 394.711 370.491 395.918C372.823 399.684 375.157 403.449 377.637 407.12C378.752 408.771 376.079 410.317 374.973 408.679C372.599 405.167 370.364 401.567 368.132 397.965C367.405 398.641 366.697 399.335 366.011 400.052C367.252 402.342 368.477 404.638 369.656 406.964Z" fill="url(#paint10_linear_3331_12907)"/>
<path d="M354.159 421.485C353.32 425.066 352.952 428.726 353.006 432.377C359.301 439.439 365.637 446.685 371.199 454.374H379.61C377.35 448.091 375.033 441.829 372.619 435.602C368.875 425.946 364.904 416.488 360.339 407.197C358.226 410.438 356.506 413.928 355.271 417.597C360.5 423.364 365.123 429.547 367.733 436.902C368.396 438.777 365.416 439.584 364.756 437.722C362.528 431.445 358.702 426.033 354.285 420.996C354.246 421.16 354.198 421.321 354.159 421.485Z" fill="url(#paint11_linear_3331_12907)"/>
<path d="M419.44 260.81C428.157 238.767 432.73 215.053 432.73 190.635C432.73 155.071 423.045 121.002 404.946 91.4155C404.765 91.5409 404.578 91.6575 404.381 91.7663C422.006 120.59 432.175 154.445 432.175 190.635C432.175 215.333 427.436 238.944 418.827 260.611C419.037 260.669 419.241 260.737 419.44 260.81ZM242.094 0.554733C167.725 0.554733 103.207 43.4922 71.9956 105.872C71.7958 105.774 71.586 105.687 71.3707 105.607C80.4501 87.423 92.5031 70.6272 107.293 55.836C143.299 19.8302 191.172 -0.000244141 242.093 -0.000244141C293.013 -0.000244141 340.885 19.8291 376.891 55.836C383.989 62.933 390.447 70.4984 396.26 78.4501C396.075 78.5789 395.9 78.7154 395.732 78.8586C361.137 31.4359 305.16 0.554733 242.094 0.554733ZM412.524 274.732C412.711 274.85 412.909 274.956 413.112 275.057C404 293.475 391.848 310.48 376.892 325.434C364.798 337.528 351.36 347.786 336.922 356.089V355.305C369.383 336.538 395.816 308.458 412.524 274.732ZM139.94 212.106C139.941 212.094 139.943 212.082 139.943 212.07C133.267 211.475 124.82 211.196 116.177 210.953L115.838 210.458C115.848 210.62 115.855 210.782 115.865 210.945C109.434 210.765 102.906 210.601 96.9263 210.341C97.4058 216.825 95.6054 223.638 93.9405 230.073C101.767 229.388 109.546 228.162 117.214 226.435C117.297 227.199 117.383 227.965 117.468 228.729C117.576 229.662 117.686 230.594 117.8 231.525C119.18 242.862 121.052 254.167 123.313 265.447C122.919 265.916 122.463 266.366 121.981 266.811C111.816 276.179 82.9841 280.135 68.1862 273.286C68.0974 272.949 68.0208 272.627 67.9321 272.292C67.1018 269.147 66.3459 266.072 65.6378 263.041C56.3364 240.37 51.4592 215.879 51.4592 190.636C51.4592 165.986 56.1199 142.053 65.0007 119.83C65.1916 119.927 65.3892 120.016 65.5923 120.097C56.8403 141.918 52.0153 165.722 52.0153 190.635C52.0153 214.666 56.5084 237.664 64.681 258.848C57.998 228.296 57.3953 202.473 59.6429 168.986C60.6486 153.981 75.0669 148.701 86.1819 148.336L86.1298 148.95C91.5008 151.492 96.0894 155.395 100.21 159.801L102.356 159.982L102.931 153.153C105.41 154.884 107.582 156.976 109.392 159.35C111.271 160.913 112.942 162.647 114.175 164.888C114.184 164.903 114.194 164.92 114.202 164.935C114.404 165.304 114.616 165.678 114.82 166.048C121.056 177.315 128.163 189.217 134.337 200.438C137.609 200.869 141.33 201.24 145.277 201.578C145.389 205.107 144.815 208.704 143.966 212.276C142.636 212.116 141.292 212.046 139.94 212.106ZM139.18 219.993C139.553 220.458 139.948 220.857 140.36 221.206C138.685 221.271 137.01 221.31 135.335 221.327C136.619 220.89 137.904 220.455 139.18 219.993ZM230.708 216.626H222.736H204.745H202.834H201.366H198.062H173.825H155.962C156.762 217.301 157.491 218.031 158.098 218.786C158.421 219.188 157.889 219.761 157.51 219.502C155.913 218.409 154.265 217.375 152.499 216.627H152.125C152.135 216.704 152.148 216.784 152.154 216.86C154.677 217.8 157.022 219.654 158.606 221.621C158.929 222.021 158.398 222.595 158.018 222.336C156.33 221.181 154.594 220.082 152.717 219.328C152.484 219.234 152.247 219.151 152.01 219.073C152.009 219.078 152.007 219.081 152.007 219.086C154.148 220.099 156.097 221.718 157.472 223.426C157.795 223.825 157.262 224.4 156.883 224.14C155.195 222.986 153.46 221.887 151.581 221.132C151.479 221.091 151.375 221.057 151.272 221.019C151.219 221.119 151.165 221.219 151.11 221.32C152.983 222.337 154.669 223.793 155.898 225.319C156.221 225.719 155.688 226.294 155.309 226.034C153.62 224.88 151.886 223.781 150.008 223.026C148.926 223.136 147.872 223.214 146.854 223.214V355.081C138.611 350.289 130.763 344.89 123.362 338.953C123.35 339.224 123.34 339.497 123.329 339.768C130.805 345.746 138.666 351.117 146.854 355.854V454.116V454.198H222.736H239.056V426.5V406.276V388.315V368.09V350.129V329.905V311.943V291.719V273.758V253.533V235.572V216.625L230.708 216.626ZM232.618 277.667H223.307V261.336H232.618V277.667ZM153.291 277.667V261.336H162.602V277.667H153.291ZM162.601 292.169V308.5H153.29V292.169H162.601ZM162.601 339.333H153.29V323.001H162.601V339.333ZM170.795 323.001H180.105V339.333H170.795V323.001ZM170.795 370.166V353.835H180.105V370.167H170.795V370.166ZM153.291 400.998V384.667H162.602V400.998H153.291ZM162.601 415.501V431.832H153.29V415.501H162.601ZM188.299 400.998V384.667H197.61V400.998H188.299ZM197.61 415.501V431.832H188.299V415.501H197.61ZM205.804 400.998V384.667H215.114V400.998H205.804ZM215.114 415.501V431.832H205.804V415.501H215.114ZM180.105 431.832H170.795V415.501H180.105V431.832ZM170.795 400.998V384.667H180.105V400.998H170.795ZM223.308 308.5V292.168H232.619V308.5H223.308ZM232.618 339.333H223.307V323.001H232.618V339.333ZM232.618 370.166H223.307V353.835H232.618V370.166ZM232.618 400.998H223.307V384.667H232.618V400.998ZM232.618 431.832H223.307V415.501H232.618V431.832ZM153.291 353.835H162.602V370.167H153.291V353.835ZM162.601 230.503V246.833H153.29V230.503H162.601ZM180.105 246.833H170.795V230.503H180.105V246.833ZM180.105 277.667H170.795V261.336H180.105V277.667ZM180.105 292.169V308.5H170.795V292.169H180.105ZM197.61 246.833H188.299V230.503H197.61V246.833ZM197.61 277.667H188.299V261.336H197.61V277.667ZM197.61 308.5H188.299V292.168H197.61V308.5ZM197.61 339.333H188.299V323.001H197.61V339.333ZM197.61 370.166H188.299V353.835H197.61V370.166ZM215.114 246.833H205.804V230.503H215.114V246.833ZM215.114 277.667H205.804V261.336H215.114V277.667ZM215.114 308.5H205.804V292.168H215.114V308.5ZM215.114 339.333H205.804V323.001H215.114V339.333ZM215.114 370.166H205.804V353.835H215.114V370.166ZM223.308 230.503H232.619V246.833H223.308V230.503Z" fill="url(#paint12_linear_3331_12907)"/>
<defs>
<linearGradient id="paint0_linear_3331_12907" x1="285.501" y1="339.5" x2="-22.72" y2="54.4506" gradientUnits="userSpaceOnUse">
<stop stop-color="#FFD8C4"/>
<stop offset="1" stop-color="#E48D60"/>
</linearGradient>
<linearGradient id="paint1_linear_3331_12907" x1="1.62213e-06" y1="288" x2="457" y2="288" gradientUnits="userSpaceOnUse">
<stop stop-color="white"/>
<stop offset="1" stop-color="#F5F5F5"/>
</linearGradient>
<linearGradient id="paint2_linear_3331_12907" x1="147.271" y1="91.3948" x2="42.5902" y2="97.375" gradientUnits="userSpaceOnUse">
<stop stop-color="#363636"/>
<stop offset="1" stop-color="#3F3F3F"/>
</linearGradient>
<linearGradient id="paint3_linear_3331_12907" x1="-153.5" y1="326.5" x2="583.5" y2="326.5" gradientUnits="userSpaceOnUse">
<stop stop-color="#444DA1"/>
<stop offset="1" stop-color="#182171"/>
</linearGradient>
<linearGradient id="paint4_linear_3331_12907" x1="445.245" y1="385" x2="360.543" y2="462.498" gradientUnits="userSpaceOnUse">
<stop stop-color="#FCFF99"/>
<stop offset="1" stop-color="#E7ED32"/>
</linearGradient>
<linearGradient id="paint5_linear_3331_12907" x1="445.245" y1="385" x2="360.543" y2="462.498" gradientUnits="userSpaceOnUse">
<stop stop-color="#FCFF99"/>
<stop offset="1" stop-color="#E7ED32"/>
</linearGradient>
<linearGradient id="paint6_linear_3331_12907" x1="445.245" y1="385" x2="360.543" y2="462.498" gradientUnits="userSpaceOnUse">
<stop stop-color="#FCFF99"/>
<stop offset="1" stop-color="#E7ED32"/>
</linearGradient>
<linearGradient id="paint7_linear_3331_12907" x1="445.245" y1="385" x2="360.543" y2="462.498" gradientUnits="userSpaceOnUse">
<stop stop-color="#FCFF99"/>
<stop offset="1" stop-color="#E7ED32"/>
</linearGradient>
<linearGradient id="paint8_linear_3331_12907" x1="445.245" y1="385" x2="360.543" y2="462.498" gradientUnits="userSpaceOnUse">
<stop stop-color="#FCFF99"/>
<stop offset="1" stop-color="#E7ED32"/>
</linearGradient>
<linearGradient id="paint9_linear_3331_12907" x1="445.245" y1="385" x2="360.543" y2="462.498" gradientUnits="userSpaceOnUse">
<stop stop-color="#FCFF99"/>
<stop offset="1" stop-color="#E7ED32"/>
</linearGradient>
<linearGradient id="paint10_linear_3331_12907" x1="445.245" y1="385" x2="360.543" y2="462.498" gradientUnits="userSpaceOnUse">
<stop stop-color="#FCFF99"/>
<stop offset="1" stop-color="#E7ED32"/>
</linearGradient>
<linearGradient id="paint11_linear_3331_12907" x1="445.245" y1="385" x2="360.543" y2="462.498" gradientUnits="userSpaceOnUse">
<stop stop-color="#FCFF99"/>
<stop offset="1" stop-color="#E7ED32"/>
</linearGradient>
<linearGradient id="paint12_linear_3331_12907" x1="36" y1="148.5" x2="78.1207" y2="469.281" gradientUnits="userSpaceOnUse">
<stop stop-color="#FCFF99"/>
<stop offset="1" stop-color="#E7ED32"/>
</linearGradient>
</defs>
</svg>
